<svg width="67" height="67" viewBox="0 0 67 67" fill="none" xmlns="http://www.w3.org/2000/svg">
<path d="M33.5 0C52.0015 0 67 14.9985 67 33.5C67 52.0015 52.0015 67 33.5 67C31.4813 67 29.5044 66.8207 27.584 66.4785V47.4238H36.1523C39.464 47.4238 42.1277 46.7278 44.1436 45.3359C46.2076 43.9439 47.6721 42.096 48.5361 39.792C49.4481 37.4401 49.9043 34.8961 49.9043 32.1602C49.9043 29.0404 49.4723 26.3283 48.6084 24.0244C47.7924 21.7205 46.3762 19.92 44.3604 18.624C42.3444 17.328 39.584 16.6797 36.0801 16.6797H22.1123V65.0127C9.21693 60.3518 0 48.0031 0 33.5C0 14.9985 14.9985 0 33.5 0ZM34.6396 20.7842C37.2317 20.7842 39.2242 21.12 40.6162 21.792C42.0561 22.416 43.0637 23.5682 43.6396 25.248C44.2156 26.88 44.5039 29.1842 44.5039 32.1602C44.5039 34.9441 44.1681 37.1522 43.4961 38.7842C42.8241 40.4161 41.7438 41.5915 40.2559 42.3115C38.8159 42.9835 36.9202 43.3203 34.5684 43.3203H27.584V20.7842H34.6396Z" fill="url(#paint0_linear_1144_2669)"/>
<defs>
<linearGradient id="paint0_linear_1144_2669" x1="15" y1="67" x2="67" y2="-3.8743e-07" gradientUnits="userSpaceOnUse">
<stop stop-color="#F44336"/>
<stop offset="1" stop-color="#FF00D6"/>
</linearGradient>
</defs>
</svg>
