<svg width="166" height="117" viewBox="0 0 166 117" fill="none" xmlns="http://www.w3.org/2000/svg">
<path d="M82.5 0C101.002 0 116 14.9985 116 33.5C116 52.0015 101.002 67 82.5 67C80.4813 67 78.5044 66.8207 76.584 66.4785V47.4238H85.1523C88.464 47.4238 91.1277 46.7278 93.1436 45.3359C95.2076 43.9439 96.6721 42.096 97.5361 39.792C98.4481 37.4401 98.9043 34.8961 98.9043 32.1602C98.9043 29.0404 98.4723 26.3283 97.6084 24.0244C96.7924 21.7205 95.3762 19.92 93.3604 18.624C91.3444 17.328 88.584 16.6797 85.0801 16.6797H71.1123V65.0127C58.2169 60.3518 49 48.0031 49 33.5C49 14.9985 63.9985 0 82.5 0ZM83.6396 20.7842C86.2317 20.7842 88.2242 21.12 89.6162 21.792C91.0561 22.416 92.0637 23.5682 92.6396 25.248C93.2156 26.88 93.5039 29.1842 93.5039 32.1602C93.5039 34.9441 93.1681 37.1522 92.4961 38.7842C91.8241 40.4161 90.7438 41.5915 89.2559 42.3115C87.8159 42.9835 85.9202 43.3203 83.5684 43.3203H76.584V20.7842H83.6396Z" fill="url(#paint0_linear_1215_1640)"/>
<path d="M9.216 76.568C12.5227 76.568 15.0613 77.1547 16.832 78.328C18.6027 79.48 19.488 81.3787 19.488 84.024C19.488 86.6907 18.592 88.6213 16.8 89.816C15.008 90.9893 12.448 91.576 9.12 91.576H7.552V99H2.56V77.144C3.648 76.9307 4.8 76.7813 6.016 76.696C7.232 76.6107 8.29867 76.568 9.216 76.568ZM9.536 80.824C9.17333 80.824 8.81067 80.8347 8.448 80.856C8.10667 80.8773 7.808 80.8987 7.552 80.92V87.32H9.12C10.848 87.32 12.1493 87.0853 13.024 86.616C13.8987 86.1467 14.336 85.272 14.336 83.992C14.336 83.3733 14.2187 82.8613 13.984 82.456C13.7707 82.0507 13.4507 81.7307 13.024 81.496C12.6187 81.24 12.1173 81.0693 11.52 80.984C10.9227 80.8773 10.2613 80.824 9.536 80.824ZM32.9778 86.392C32.5511 86.2853 32.0498 86.1787 31.4738 86.072C30.8978 85.944 30.2791 85.88 29.6178 85.88C29.3191 85.88 28.9564 85.912 28.5298 85.976C28.1244 86.0187 27.8151 86.072 27.6018 86.136V99H22.8338V83.064C23.6871 82.7653 24.6898 82.488 25.8418 82.232C27.0151 81.9547 28.3164 81.816 29.7458 81.816C30.0018 81.816 30.3111 81.8373 30.6738 81.88C31.0364 81.9013 31.3991 81.944 31.7618 82.008C32.1244 82.0507 32.4871 82.1147 32.8498 82.2C33.2124 82.264 33.5218 82.3493 33.7778 82.456L32.9778 86.392ZM51.7653 90.552C51.7653 91.8747 51.5733 93.0907 51.1893 94.2C50.8053 95.288 50.2506 96.2267 49.5253 97.016C48.7999 97.784 47.9253 98.3813 46.9013 98.808C45.8986 99.2347 44.7679 99.448 43.5093 99.448C42.2719 99.448 41.1413 99.2347 40.1173 98.808C39.1146 98.3813 38.2506 97.784 37.5253 97.016C36.7999 96.2267 36.2346 95.288 35.8293 94.2C35.4239 93.0907 35.2213 91.8747 35.2213 90.552C35.2213 89.2293 35.4239 88.024 35.8293 86.936C36.2559 85.848 36.8319 84.92 37.5573 84.152C38.3039 83.384 39.1786 82.7867 40.1813 82.36C41.2053 81.9333 42.3146 81.72 43.5093 81.72C44.7253 81.72 45.8346 81.9333 46.8373 82.36C47.8613 82.7867 48.7359 83.384 49.4613 84.152C50.1866 84.92 50.7519 85.848 51.1573 86.936C51.5626 88.024 51.7653 89.2293 51.7653 90.552ZM46.9013 90.552C46.9013 89.08 46.6026 87.928 46.0053 87.096C45.4293 86.2427 44.5973 85.816 43.5093 85.816C42.4213 85.816 41.5786 86.2427 40.9813 87.096C40.3839 87.928 40.0853 89.08 40.0853 90.552C40.0853 92.024 40.3839 93.1973 40.9813 94.072C41.5786 94.9253 42.4213 95.352 43.5093 95.352C44.5973 95.352 45.4293 94.9253 46.0053 94.072C46.6026 93.1973 46.9013 92.024 46.9013 90.552ZM66.2428 90.712C66.2428 89.24 65.9121 88.0667 65.2508 87.192C64.5894 86.296 63.6081 85.848 62.3068 85.848C61.8801 85.848 61.4854 85.8693 61.1228 85.912C60.7601 85.9333 60.4614 85.9653 60.2268 86.008V94.616C60.5254 94.808 60.9094 94.968 61.3788 95.096C61.8694 95.224 62.3601 95.288 62.8508 95.288C65.1121 95.288 66.2428 93.7627 66.2428 90.712ZM71.1068 90.584C71.1068 91.8853 70.9468 93.0693 70.6268 94.136C70.3068 95.2027 69.8374 96.12 69.2188 96.888C68.6001 97.656 67.8321 98.2533 66.9148 98.68C65.9974 99.1067 64.9414 99.32 63.7468 99.32C63.0854 99.32 62.4668 99.256 61.8908 99.128C61.3148 99 60.7601 98.8187 60.2268 98.584V104.92H55.4588V82.744C55.8854 82.616 56.3761 82.4987 56.9308 82.392C57.4854 82.264 58.0614 82.1573 58.6588 82.072C59.2774 81.9867 59.8961 81.9227 60.5148 81.88C61.1548 81.816 61.7628 81.784 62.3388 81.784C63.7254 81.784 64.9628 81.9973 66.0508 82.424C67.1388 82.8293 68.0561 83.416 68.8028 84.184C69.5494 84.9307 70.1148 85.848 70.4988 86.936C70.9041 88.024 71.1068 89.24 71.1068 90.584ZM73.9713 90.712C73.9713 89.2187 74.1953 87.9173 74.6432 86.808C75.1126 85.6773 75.7206 84.7387 76.4673 83.992C77.2139 83.2453 78.0673 82.68 79.0273 82.296C80.0086 81.912 81.0113 81.72 82.0353 81.72C84.4246 81.72 86.3126 82.456 87.6993 83.928C89.0859 85.3787 89.7793 87.5227 89.7793 90.36C89.7793 90.6373 89.7686 90.9467 89.7473 91.288C89.7259 91.608 89.7046 91.896 89.6833 92.152H78.8673C78.9739 93.1333 79.4326 93.912 80.2433 94.488C81.0539 95.064 82.1419 95.352 83.5073 95.352C84.3819 95.352 85.2353 95.2773 86.0673 95.128C86.9206 94.9573 87.6139 94.7547 88.1473 94.52L88.7873 98.392C88.5313 98.52 88.1899 98.648 87.7633 98.776C87.3366 98.904 86.8566 99.0107 86.3233 99.096C85.8113 99.2027 85.2566 99.288 84.6593 99.352C84.0619 99.416 83.4646 99.448 82.8673 99.448C81.3526 99.448 80.0299 99.224 78.8993 98.776C77.7899 98.328 76.8619 97.72 76.1153 96.952C75.3899 96.1627 74.8459 95.2347 74.4833 94.168C74.1419 93.1013 73.9713 91.9493 73.9713 90.712ZM85.1713 88.888C85.1499 88.4827 85.0753 88.088 84.9473 87.704C84.8406 87.32 84.6593 86.9787 84.4033 86.68C84.1686 86.3813 83.8593 86.136 83.4753 85.944C83.1126 85.752 82.6539 85.656 82.0993 85.656C81.5659 85.656 81.1073 85.752 80.7233 85.944C80.3393 86.1147 80.0193 86.3493 79.7633 86.648C79.5073 86.9467 79.3046 87.2987 79.1553 87.704C79.0273 88.088 78.9313 88.4827 78.8673 88.888H85.1713ZM100.179 99.32C98.7921 99.2987 97.6614 99.1493 96.7868 98.872C95.9334 98.5947 95.2508 98.2107 94.7388 97.72C94.2481 97.208 93.9068 96.6 93.7148 95.896C93.5441 95.1707 93.4588 94.36 93.4588 93.464V74.936L98.2268 74.168V92.504C98.2268 92.9307 98.2588 93.3147 98.3228 93.656C98.3868 93.9973 98.5041 94.2853 98.6748 94.52C98.8668 94.7547 99.1334 94.9467 99.4748 95.096C99.8161 95.2453 100.275 95.3413 100.851 95.384L100.179 99.32ZM119.328 90.552C119.328 91.8747 119.136 93.0907 118.752 94.2C118.368 95.288 117.813 96.2267 117.088 97.016C116.362 97.784 115.488 98.3813 114.464 98.808C113.461 99.2347 112.33 99.448 111.072 99.448C109.834 99.448 108.704 99.2347 107.68 98.808C106.677 98.3813 105.813 97.784 105.088 97.016C104.362 96.2267 103.797 95.288 103.392 94.2C102.986 93.0907 102.784 91.8747 102.784 90.552C102.784 89.2293 102.986 88.024 103.392 86.936C103.818 85.848 104.394 84.92 105.12 84.152C105.866 83.384 106.741 82.7867 107.744 82.36C108.768 81.9333 109.877 81.72 111.072 81.72C112.288 81.72 113.397 81.9333 114.4 82.36C115.424 82.7867 116.298 83.384 117.024 84.152C117.749 84.92 118.314 85.848 118.72 86.936C119.125 88.024 119.328 89.2293 119.328 90.552ZM114.464 90.552C114.464 89.08 114.165 87.928 113.568 87.096C112.992 86.2427 112.16 85.816 111.072 85.816C109.984 85.816 109.141 86.2427 108.544 87.096C107.946 87.928 107.648 89.08 107.648 90.552C107.648 92.024 107.946 93.1973 108.544 94.072C109.141 94.9253 109.984 95.352 111.072 95.352C112.16 95.352 112.992 94.9253 113.568 94.072C114.165 93.1973 114.464 92.024 114.464 90.552ZM123.021 82.744C123.832 82.5093 124.877 82.296 126.157 82.104C127.437 81.8907 128.781 81.784 130.189 81.784C131.619 81.784 132.803 81.976 133.741 82.36C134.701 82.7227 135.459 83.2453 136.013 83.928C136.568 84.6107 136.963 85.4213 137.197 86.36C137.432 87.2987 137.549 88.344 137.549 89.496V99H132.781V90.072C132.781 88.536 132.579 87.448 132.173 86.808C131.768 86.168 131.011 85.848 129.901 85.848C129.56 85.848 129.197 85.8693 128.813 85.912C128.429 85.9333 128.088 85.9653 127.789 86.008V99H123.021V82.744ZM145.929 90.456C145.929 91.928 146.26 93.112 146.921 94.008C147.582 94.904 148.564 95.352 149.865 95.352C150.292 95.352 150.686 95.3413 151.049 95.32C151.412 95.2773 151.71 95.2347 151.945 95.192V86.52C151.646 86.328 151.252 86.168 150.761 86.04C150.292 85.912 149.812 85.848 149.321 85.848C147.06 85.848 145.929 87.384 145.929 90.456ZM156.713 98.456C156.286 98.584 155.796 98.712 155.241 98.84C154.686 98.9467 154.1 99.0427 153.481 99.128C152.884 99.2133 152.265 99.2773 151.625 99.32C151.006 99.384 150.409 99.416 149.833 99.416C148.446 99.416 147.209 99.2133 146.121 98.808C145.033 98.4027 144.116 97.8267 143.369 97.08C142.622 96.312 142.046 95.3947 141.641 94.328C141.257 93.24 141.065 92.024 141.065 90.68C141.065 89.3147 141.236 88.088 141.577 87C141.918 85.8907 142.409 84.952 143.049 84.184C143.689 83.416 144.468 82.8293 145.385 82.424C146.324 82.0187 147.39 81.816 148.585 81.816C149.246 81.816 149.833 81.88 150.345 82.008C150.878 82.136 151.412 82.3173 151.945 82.552V74.936L156.713 74.168V98.456Z" fill="url(#paint1_linear_1215_1640)"/>
<defs>
<linearGradient id="paint0_linear_1215_1640" x1="64" y1="67" x2="116" y2="-3.8743e-07" gradientUnits="userSpaceOnUse">
<stop stop-color="#F44336"/>
<stop offset="1" stop-color="#FF00D6"/>
</linearGradient>
<linearGradient id="paint1_linear_1215_1640" x1="83" y1="69" x2="83" y2="117" gradientUnits="userSpaceOnUse">
<stop stop-color="#FF411F"/>
<stop offset="1" stop-color="#FF0BB9"/>
</linearGradient>
</defs>
</svg>
